<?xml version="1.0" standalone="no"?>
<!DOCTYPE svg PUBLIC "-//W3C//DTD SVG 20010904//EN"
 "http://www.w3.org/TR/2001/REC-SVG-20010904/DTD/svg10.dtd">
<svg version="1.0" xmlns="http://www.w3.org/2000/svg"
 width="113.000000pt" height="113.000000pt" viewBox="0 0 113.000000 113.000000"
 preserveAspectRatio="xMidYMid meet">
<metadata>
Created by potrace 1.11, written by Peter Selinger 2001-2013
</metadata>
<g transform="translate(0.000000,113.000000) scale(0.100000,-0.100000)"
fill="#000000" stroke="none">
<path d="M276 915 c17 -8 34 -24 37 -37 4 -12 6 -137 6 -278 0 -339 -14 -393
-122 -471 -47 -34 -37 -36 40 -9 92 32 147 98 168 201 8 36 12 149 12 302 0
135 4 250 8 257 4 6 21 20 39 31 l31 19 -125 -1 c-115 -1 -122 -2 -94 -14z"/>
<path d="M539 918 c15 -8 28 -27 33 -46 5 -18 8 -155 6 -304 l-3 -270 -25 -20
-25 -20 180 4 c201 4 243 15 278 75 18 31 23 95 13 143 -12 54 -74 107 -133
115 -15 2 -30 4 -33 4 -2 1 16 11 40 24 60 29 89 85 83 157 -9 123 -56 147
-284 149 -130 1 -150 -1 -130 -11z m261 -18 c68 -36 72 -224 6 -279 -8 -7 -40
-15 -71 -18 -64 -6 -57 -25 -56 152 0 190 -7 169 51 162 27 -3 59 -11 70 -17z
m40 -330 c34 -18 58 -84 55 -149 -5 -111 -34 -140 -144 -146 l-71 -4 -1 27
c-1 31 -1 236 0 271 1 23 2 24 70 18 39 -3 80 -11 91 -17z"/>
</g>
</svg>
